<?xml version="1.0" encoding="UTF-8" standalone="no"?>
<svg
   xmlns:dc="http://purl.org/dc/elements/1.1/"
   xmlns:cc="http://creativecommons.org/ns#"
   xmlns:rdf="http://www.w3.org/1999/02/22-rdf-syntax-ns#"
   xmlns:svg="http://www.w3.org/2000/svg"
   xmlns="http://www.w3.org/2000/svg"
   xmlns:xlink="http://www.w3.org/1999/xlink"
   xmlns:sodipodi="http://sodipodi.sourceforge.net/DTD/sodipodi-0.dtd"
   xmlns:inkscape="http://www.inkscape.org/namespaces/inkscape"
   id="svg8"
   version="1.1"
   viewBox="0 0 16.933333 16.933334"
   height="64"
   width="64"
   sodipodi:docname="64.svg"
   inkscape:version="0.92.3 (2405546, 2018-03-11)">
  <sodipodi:namedview
     pagecolor="#ffffff"
     bordercolor="#666666"
     borderopacity="1"
     objecttolerance="10"
     gridtolerance="10"
     guidetolerance="10"
     inkscape:pageopacity="0"
     inkscape:pageshadow="2"
     inkscape:window-width="762"
     inkscape:window-height="480"
     id="namedview50"
     showgrid="false"
     inkscape:zoom="1.84375"
     inkscape:cx="53.356558"
     inkscape:cy="22.379377"
     inkscape:window-x="0"
     inkscape:window-y="30"
     inkscape:window-maximized="0"
     inkscape:current-layer="svg8" />
  <defs
     id="defs2">
    <linearGradient
       id="linearGradient879">
      <stop
         style="stop-color:#3977a7;stop-opacity:0"
         offset="0"
         id="stop875" />
      <stop
         style="stop-color:#c3e9ff;stop-opacity:1"
         offset="1"
         id="stop877" />
    </linearGradient>
    <linearGradient
       id="linearGradient869">
      <stop
         style="stop-color:#136cf2;stop-opacity:1"
         offset="0"
         id="stop865" />
      <stop
         style="stop-color:#0ba6ff;stop-opacity:1"
         offset="1"
         id="stop867" />
    </linearGradient>
    <linearGradient
       id="linearGradient863">
      <stop
         id="stop859"
         offset="0"
         style="stop-color:#136ff3;stop-opacity:1" />
      <stop
         id="stop861"
         offset="1"
         style="stop-color:#0ba3fe;stop-opacity:1" />
    </linearGradient>
    <linearGradient
       id="highlight">
      <stop
         id="stop889"
         offset="0"
         style="stop-color:#3977a7;stop-opacity:0" />
      <stop
         id="stop891"
         offset="1"
         style="stop-color:#c3e5ff;stop-opacity:1" />
    </linearGradient>
    <linearGradient
       id="side">
      <stop
         style="stop-color:#33668e;stop-opacity:1"
         offset="0"
         id="stop994" />
      <stop
         style="stop-color:#4a89ba;stop-opacity:1"
         offset="1"
         id="stop996" />
    </linearGradient>
    <linearGradient
       id="bg">
      <stop
         id="stop978"
         offset="0"
         style="stop-color:#2d5a7d;stop-opacity:1" />
      <stop
         id="stop980"
         offset="1"
         style="stop-color:#386c94;stop-opacity:1" />
    </linearGradient>
    <linearGradient
       gradientTransform="matrix(0.95833356,0,0,0.95833356,113.96437,59.717097)"
       gradientUnits="userSpaceOnUse"
       y2="617.21558"
       x2="-184.85715"
       y1="713.21558"
       x1="-184.85715"
       id="linearGradient984"
       xlink:href="#bg" />
    <linearGradient
       gradientTransform="matrix(0.9791669,0,0,0.9791669,119.79472,46.837626)"
       gradientUnits="userSpaceOnUse"
       y2="616.21552"
       x2="-185.85715"
       y1="712.21552"
       x1="-185.85715"
       id="linearGradient992"
       xlink:href="#side" />
    <linearGradient
       gradientTransform="matrix(0.40740732,0,0,0.40740732,-171.17456,429.75735)"
       y2="615.21558"
       x2="-186.85715"
       y1="727.21558"
       x1="-186.85715"
       gradientUnits="userSpaceOnUse"
       id="linearGradient1008"
       xlink:href="#linearGradient869" />
    <linearGradient
       y2="616.21558"
       x2="-186.85715"
       y1="635.21558"
       x1="-186.85715"
       gradientTransform="translate(9.1808013e-6,-1342.4311)"
       gradientUnits="userSpaceOnUse"
       id="linearGradient897"
       xlink:href="#highlight" />
    <linearGradient
       gradientTransform="matrix(1.1818192,0,0,1.1818192,57.974327,-127.8582)"
       gradientUnits="userSpaceOnUse"
       y2="681.21552"
       x2="-252.85715"
       y1="725.21552"
       x1="-252.85715"
       id="linearGradient916"
       xlink:href="#linearGradient869" />
    <linearGradient
       y2="681.21564"
       x2="-251.1649"
       y1="726.9079"
       x1="-251.1649"
       gradientTransform="matrix(1.1818192,0,0,1.1818192,56.974359,-128.85824)"
       gradientUnits="userSpaceOnUse"
       id="linearGradient862"
       xlink:href="#linearGradient863" />
    <linearGradient
       y2="681.21564"
       x2="-253.70337"
       y1="713.36945"
       x1="-253.70337"
       gradientTransform="matrix(1.1818192,0,0,1.1818192,56.974359,-128.85824)"
       gradientUnits="userSpaceOnUse"
       id="linearGradient962"
       xlink:href="#linearGradient879" />
    <linearGradient
       y2="726.9079"
       x2="-253.70337"
       y1="713.36945"
       x1="-253.70337"
       gradientTransform="matrix(1.1818192,0,0,1.1818192,56.974359,-128.85824)"
       gradientUnits="userSpaceOnUse"
       id="linearGradient966"
       xlink:href="#linearGradient879" />
    <filter
       height="2.159194"
       y="-0.57959698"
       width="1.0891693"
       x="-0.044584633"
       id="filter1476"
       style="color-interpolation-filters:sRGB">
      <feGaussianBlur
         id="feGaussianBlur1478"
         stdDeviation="0.96600039" />
    </filter>
  </defs>
  <metadata
     id="metadata5">
    <rdf:RDF>
      <cc:Work
         rdf:about="">
        <dc:format>image/svg+xml</dc:format>
        <dc:type
           rdf:resource="http://purl.org/dc/dcmitype/StillImage" />
        <dc:title />
      </cc:Work>
    </rdf:RDF>
  </metadata>
  <g
     transform="translate(0,-280.06665)"
     id="layer1">
    <g
       transform="matrix(0.26458333,0,0,0.26458333,79.072619,102.47422)"
       id="g895">
      <path
         style="opacity:0.42699998;fill:#000000;fill-opacity:1;stroke:none;stroke-width:0.44053808;stroke-opacity:0.15686275;filter:url(#filter1476)"
         d="m -290.85714,728.21545 h 47.99998 c 1.10801,0 2.00001,0.89201 2.00001,2.00002 0,1.108 -0.892,2.00001 -2.00001,2.00001 h -47.99998 c -1.108,0 -2.00001,-0.89201 -2.00001,-2.00001 0,-1.10801 0.89201,-2.00002 2.00001,-2.00002 z"
         id="rect1995" />
      <path
         style="opacity:1;fill:#000000;fill-opacity:1;stroke:none;stroke-opacity:1"
         d="m -290.85717,675.21552 h 48.00005 c 2.21598,0 3.99997,1.78398 3.99997,3.99997 v 48.00003 c 0,2.21598 -1.78399,3.99997 -3.99997,3.99997 h -48.00005 c -2.21599,0 -3.99998,-1.78399 -3.99998,-3.99997 v -48.00003 c 0,-2.21599 1.78399,-3.99997 3.99998,-3.99997 z"
         id="rect847" />
      <path
         style="opacity:1;fill:url(#linearGradient862);fill-opacity:1;stroke:none;stroke-width:1.1818192;stroke-opacity:1"
         d="m -290.85717,676.21552 h 48.00005 c 1.66198,0 2.99997,1.33798 2.99997,2.99997 v 48.00003 c 0,1.66198 -1.33799,2.99997 -2.99997,2.99997 h -48.00005 c -1.66199,0 -2.99998,-1.33799 -2.99998,-2.99997 v -48.00003 c 0,-1.66199 1.33799,-2.99997 2.99998,-2.99997 z"
         id="rect860" />
      <path
         style="opacity:0.11300001;fill:url(#linearGradient966);fill-opacity:1;stroke:none;stroke-width:1.1818192;stroke-opacity:1"
         d="m -290.85717,676.21552 h 48.00005 c 1.66198,0 2.99997,1.33798 2.99997,2.99997 v 48.00003 c 0,1.66198 -1.33799,2.99997 -2.99997,2.99997 h -48.00005 c -1.66199,0 -2.99998,-1.33799 -2.99998,-2.99997 v -48.00003 c 0,-1.66199 1.33799,-2.99997 2.99998,-2.99997 z"
         id="rect964" />
      <path
         style="opacity:0.569;fill:url(#linearGradient962);fill-opacity:1;stroke:none;stroke-width:1.1818192;stroke-opacity:1"
         d="m -290.85717,676.21552 h 48.00005 c 1.66198,0 2.99997,1.33798 2.99997,2.99997 v 48.00003 c 0,1.66198 -1.33799,2.99997 -2.99997,2.99997 h -48.00005 c -1.66199,0 -2.99998,-1.33799 -2.99998,-2.99997 v -48.00003 c 0,-1.66199 1.33799,-2.99997 2.99998,-2.99997 z"
         id="rect960" />
      <path
         style="opacity:1;fill:url(#linearGradient916);fill-opacity:1;stroke:none;stroke-width:1.1818192;stroke-opacity:1"
         d="m -290.8572,677.21552 h 48.00009 c 1.10799,0 1.99998,0.89198 1.99998,1.99997 v 48.00009 c 0,1.10799 -0.89199,1.99998 -1.99998,1.99998 h -48.00009 c -1.10799,0 -1.99998,-0.89199 -1.99998,-1.99998 v -48.00009 c 0,-1.10799 0.89199,-1.99997 1.99998,-1.99997 z"
         id="rect908" />
      <g
         transform="matrix(0.49999986,0,0,0.49999986,-147.42861,367.60783)"
         id="g1047">
        <g
           style="fill:#092b52;fill-opacity:1"
           id="g891">
          <path
             id="path1010"
             d="m -274.85715,647.2155 v 8 h 16 v 40 h 8 v -40 h 16 v -8 z"
             style="opacity:0.672;fill:#092b52;fill-opacity:1;stroke:none;stroke-width:1px;stroke-linecap:butt;stroke-linejoin:miter;stroke-opacity:1" />
          <path
             id="path1012"
             d="m -234.85715,695.2155 v -8 h 24 v 8 z"
             style="opacity:0.672;fill:#092b52;fill-opacity:1;stroke:none;stroke-width:1px;stroke-linecap:butt;stroke-linejoin:miter;stroke-opacity:1" />
        </g>
        <g
           style="fill:#39a7fc;fill-opacity:1"
           id="g887">
          <path
             style="opacity:0.57300002;fill:#39a7fc;fill-opacity:1;stroke:none;stroke-opacity:0.15686275"
             d="m -274.85715,655.21552 h 16 v 1.99998 h -16 z"
             id="rect1014" />
          <path
             style="opacity:0.57300002;fill:#39a7fc;fill-opacity:1;stroke:none;stroke-opacity:0.15686275"
             d="m -250.85715,655.21552 h 16.00001 v 1.99998 h -16.00001 z"
             id="rect1016" />
          <path
             style="opacity:0.57300002;fill:#39a7fc;fill-opacity:1;stroke:none;stroke-width:0.70710683;stroke-opacity:0.15686275"
             d="m -258.85715,695.21552 h 8.00001 v 1.99999 h -8.00001 z"
             id="rect1018" />
          <path
             style="opacity:0.57300002;fill:#39a7fc;fill-opacity:1;stroke:none;stroke-width:1.22474504;stroke-opacity:0.15686275"
             d="m -234.85715,695.21552 h 24.00002 v 1.99999 h -24.00002 z"
             id="rect1020" />
        </g>
      </g>
    </g>
  </g>
</svg>
